<svg viewBox="190 190 110 200" xmlns="http://www.w3.org/2000/svg">
  <g>
    <path fill="#4f9743" d="M228.37,371.11c-5.21,5.1-10.94,9.06-17.74,11.3-2.87.94-5.34-.46-6.51-3.56-1.08-2.87-.24-4.85,2.68-6.02,17.96-7.21,29.06-20.67,35.17-38.64,3.15-9.26,4.87-18.92,7.67-28.28,4.02-13.45,9.82-26.06,17.31-37.91,4.58-7.25,9.44-14.31,15.07-20.8.26-.3.46-.67,1.12-1.67-3.28,1.73-5.4,3.71-7.57,5.6-13.31,11.61-22.07,26.28-28.59,42.47-4.32,10.71-7.43,21.75-9.36,33.13-.02.14-.19.26-.47.62-.84-4.72-1.3-9.31-2.43-13.77-1.49-5.86-3.06-11.72-4.23-17.65-3.53-17.84-.46-34.19,11.19-48.59,8.94-11.05,20.47-18.5,33.12-24.51,10.96-5.21,22.5-8.35,34.46-10.15,2.39-.36,3.39.15,4.04,2.78,2.66,10.78,3.44,21.7,2.86,32.71-.62,11.55-2.92,22.82-7.45,33.52-4.4,10.39-12.31,17.63-21.64,23.53-7.62,4.82-15.74,8.72-23.65,13.02-7.36,3.99-12.42,10.07-15.44,17.9-3.14,8.15-6,16.44-10.79,23.85-2.54,3.93-5.23,7.76-8.8,11.12Z"/>
    <path fill="#306eaf" d="M241.08,372.01c-1.22-.25-2.22-.49-3.34-.75.13-.42.15-.8.34-1.02,5.8-6.88,10.07-14.65,13.86-22.79,6.18-13.3,17.03-21.74,29.98-27.92,10.7-5.11,20.75-11.18,28.29-20.67,2.21-2.78,3.96-5.85,5.9-8.99,1.51,1.32,1.34,3.07,1.71,4.58,1.9,7.75,3.25,15.62,2.83,23.6-1.05,19.71-8.61,36.05-25.71,46.99-8.9,5.69-18.92,7.93-29.33,8.52-8.15.47-16.24-.38-24.51-1.55Z"/>
  </g>
</svg>
